<?xml version="1.0" standalone="no"?>
<!DOCTYPE svg PUBLIC "-//W3C//DTD SVG 20010904//EN"
 "http://www.w3.org/TR/2001/REC-SVG-20010904/DTD/svg10.dtd">
<svg version="1.0" xmlns="http://www.w3.org/2000/svg"
 width="214.000000pt" height="300.000000pt" viewBox="0 0 214.000000 300.000000"
 preserveAspectRatio="xMidYMid meet">
<metadata>
Created by potrace 1.10, written by Peter Selinger 2001-2011
</metadata>
<g transform="translate(0.000000,300.000000) scale(0.100000,-0.100000)"
fill="#000000" stroke="none">
<path d="M898 2868 c-3 -129 -4 -133 -26 -136 -13 -2 -25 3 -28 12 -5 12 -21
16 -68 16 l-61 0 1 -67 2 -68 151 -3 151 -3 0 191 c0 183 -1 190 -20 190 -19
0 -20 -7 -20 -159 0 -110 -4 -162 -12 -167 -9 -6 -86 -7 -196 -4 -8 0 -12 9
-10 23 3 24 20 25 100 11 56 -9 66 14 70 169 3 115 1 127 -14 127 -15 0 -18
-15 -20 -132z"/>
<path d="M1080 2948 l0 -53 88 -88 87 -89 -87 4 -88 4 0 -53 0 -53 174 0 173
0 -3 52 c-2 51 -6 56 -84 140 l-81 88 86 0 86 0 -7 48 c-8 56 -7 55 -32 48
-11 -4 -18 -15 -18 -29 1 -19 -5 -23 -46 -27 -59 -6 -92 -32 -82 -63 7 -24 16
-36 87 -114 76 -84 62 -109 -54 -97 l-68 6 30 25 c16 14 29 31 29 39 0 7 -34
52 -75 99 -66 76 -75 91 -75 126 0 32 -3 39 -20 39 -17 0 -20 -7 -20 -52z"/>
<path d="M0 2420 c1 -23 77 -25 1055 -27 572 -2 1046 -5 1054 -8 9 -4 10 -9 3
-18 -6 -6 -10 -16 -10 -22 0 -22 -42 -501 -47 -540 -2 -16 -7 -64 -10 -105 -4
-41 -8 -88 -10 -105 -2 -16 -30 -317 -62 -669 -32 -351 -62 -645 -68 -653 -6
-8 -67 -30 -136 -49 -224 -62 -273 -76 -359 -99 -198 -53 -316 -89 -328 -98
-8 -7 -20 -6 -35 1 -25 12 -140 46 -537 157 -151 43 -278 80 -282 84 -9 8 -24
120 -32 231 -3 41 -10 119 -15 172 -6 53 -17 186 -26 295 -8 109 -19 250 -25
313 -12 133 -56 633 -70 795 -19 219 -28 287 -40 298 -10 10 -11 -4 -6 -63 4
-41 10 -109 13 -150 3 -41 8 -102 10 -135 3 -33 7 -85 9 -115 2 -30 6 -84 9
-120 3 -36 5 -74 6 -85 1 -11 18 -204 39 -430 21 -225 39 -417 39 -425 1 -8 4
-46 6 -85 3 -38 8 -101 11 -140 2 -38 6 -88 8 -110 2 -22 6 -80 10 -130 10
-148 1 -135 129 -173 62 -18 121 -35 132 -37 11 -2 21 -4 23 -5 1 -2 7 -4 12
-5 6 -1 13 -4 18 -5 4 -1 12 -3 17 -5 6 -1 12 -3 15 -4 3 -2 14 -4 25 -5 11
-2 83 -22 160 -46 77 -24 147 -43 155 -43 8 0 21 -4 28 -10 6 -5 12 -7 12 -4
0 3 37 -5 82 -17 75 -20 87 -21 128 -9 25 7 59 15 75 18 17 2 31 5 33 6 1 1 7
3 12 4 6 1 11 4 13 5 1 1 13 4 27 6 14 2 92 23 174 48 83 25 152 44 154 42 2
-2 15 2 29 9 15 8 30 12 35 9 4 -3 14 -2 21 3 6 4 21 9 31 10 11 2 62 17 114
33 52 16 98 27 102 25 5 -3 11 16 14 42 6 43 31 309 35 358 2 31 19 252 21
285 1 8 19 193 41 410 21 217 41 431 44 475 5 75 9 126 18 235 2 25 7 87 11
138 4 51 11 126 15 165 5 40 8 73 7 73 -4 5 -2136 9 -2136 4z"/>
<path d="M1298 2253 c117 -2 306 -2 420 0 114 1 18 2 -213 2 -231 0 -324 -1
-207 -2z"/>
<path d="M1062 2065 c-2 -99 -6 -214 -8 -255 -3 -53 -2 -72 6 -64 7 7 9 93 7
255 -2 235 -2 237 -5 64z"/>
<path d="M735 1990 c-16 -18 -17 -36 -11 -222 4 -112 9 -228 11 -258 10 -126
14 -664 6 -645 -5 11 -10 40 -10 65 -1 60 -16 109 -38 126 -12 9 -49 13 -114
14 -89 0 -97 -2 -119 -25 l-23 -25 17 -162 c25 -250 25 -247 49 -262 28 -18
52 -25 284 -89 202 -57 216 -57 234 -11 5 15 9 318 9 746 0 632 -2 724 -15
745 -15 22 -20 23 -139 23 -109 0 -125 -2 -141 -20z m265 -14 c0 -3 0 -343 0
-754 l0 -749 -122 37 c-68 20 -180 52 -249 71 l-126 33 -7 76 c-3 41 -10 130
-16 196 -5 67 -12 129 -16 138 -5 14 7 16 109 16 l116 0 5 -52 c4 -29 7 -78 9
-108 l2 -54 39 -8 c21 -5 40 -7 41 -6 1 2 -6 233 -16 513 -10 281 -18 544 -18
585 l-1 75 125 -2 c69 -1 125 -4 125 -7z"/>
<path d="M1126 2001 c-11 -17 42 -21 309 -21 250 0 325 7 280 24 -26 9 -583 7
-589 -3z"/>
<path d="M1097 1974 c-10 -11 -9 -792 2 -798 12 -8 25 752 14 782 -5 13 -12
20 -16 16z"/>
<path d="M1720 1845 l-13 -135 -161 0 -161 0 0 -135 0 -135 148 0 c91 0 147 4
147 10 0 12 -2 12 -135 15 -55 2 -108 3 -118 4 -16 1 -17 12 -16 106 l2 105
141 0 c132 0 143 1 160 21 20 24 35 115 36 217 0 109 -17 67 -30 -73z"/>
<path d="M1050 1690 c0 -16 4 -30 8 -30 5 0 9 14 10 30 0 17 -4 30 -9 30 -5 0
-9 -13 -9 -30z"/>
<path d="M1055 840 c0 -344 1 -484 2 -312 2 171 2 453 0 625 -1 171 -2 31 -2
-313z"/>
<path d="M1687 1424 c-4 -10 -23 -197 -43 -414 -20 -217 -37 -396 -39 -398 -1
-1 -53 -16 -116 -32 -191 -49 -351 -98 -362 -109 -20 -20 18 -13 206 39 316
86 299 76 309 193 3 45 11 136 18 202 6 66 19 208 29 315 10 107 15 201 11
209 -6 11 -9 10 -13 -5z"/>
<path d="M1127 1163 c-19 -18 3 -23 106 -23 63 0 116 -2 119 -5 2 -3 1 -33 -3
-67 -4 -35 -10 -97 -13 -138 -3 -41 -9 -77 -14 -81 -8 -8 -143 -49 -162 -49
-6 0 -25 -9 -41 -21 l-29 -20 0 -137 c0 -96 3 -133 11 -125 6 6 9 57 7 137 -2
69 -2 126 -1 126 4 0 238 63 240 65 2 1 10 71 18 156 9 85 18 162 21 172 5 16
-5 17 -124 17 -71 0 -132 -3 -135 -7z"/>
</g>
</svg>
