<svg version="1.1" id="Layer_1" xmlns="http://www.w3.org/2000/svg" xmlns:xlink="http://www.w3.org/1999/xlink" x="0px" y="0px"
	 width="100%" viewBox="0 0 234 328" enable-background="new 0 0 234 328" xml:space="preserve">
<path fill="#DAB82D" opacity="1.000000" stroke="none" 
	d="
M125.000000,329.000000 
	C120.310745,329.000000 115.621490,329.000000 110.807251,328.701416 
	C103.940796,326.272217 97.250999,323.958008 90.448463,322.044495 
	C67.392662,315.559052 44.296974,309.215363 21.111168,302.788300 
	C20.716877,296.121368 20.505386,289.695312 19.923618,283.302979 
	C18.720360,270.081879 17.211260,256.888367 16.036928,243.664948 
	C15.178190,233.995285 14.813904,224.281448 13.939710,214.613480 
	C12.774020,201.721756 11.264533,188.861526 10.020696,175.976379 
	C8.932497,164.703506 7.936354,153.420593 7.026706,142.131882 
	C5.627126,124.763176 4.366885,107.383163 2.924263,90.018181 
	C2.836860,88.966103 1.666472,88.003983 0.999999,87.000000 
	C1.000000,79.312424 1.000000,71.624847 1.468657,63.468910 
	C79.624878,63.000366 157.312439,63.000183 235.000000,63.000000 
	C235.000000,70.354256 235.000000,77.708504 234.627869,85.236938 
	C233.503616,90.858261 232.556778,96.287132 232.043396,101.756683 
	C231.197708,110.766640 230.737076,119.812332 229.924484,128.825867 
	C228.701981,142.386398 227.266647,155.927658 226.017288,169.485886 
	C225.232544,178.002075 224.725235,186.544174 223.910019,195.057083 
	C222.691238,207.784424 221.226730,220.488373 220.028259,233.217484 
	C219.195526,242.061905 218.747192,250.942398 217.924866,259.787964 
	C216.710693,272.848450 215.175598,285.880768 214.108612,298.952087 
	C213.872086,301.849701 213.311905,303.343658 210.321854,304.083801 
	C203.087753,305.874542 195.947128,308.039703 188.753754,309.998627 
	C167.791183,315.707123 146.818665,321.379242 125.872192,327.146118 
	C125.443802,327.264069 125.284714,328.360199 125.000000,329.000000 
M198.071976,251.735458 
	C199.146378,240.150528 200.224228,228.565918 201.294373,216.980591 
	C202.868713,199.936615 204.421402,182.890610 206.014145,165.848358 
	C207.173996,153.438263 208.430725,141.037079 209.558243,128.624130 
	C210.760986,115.382751 211.810104,102.127319 213.038834,88.888466 
	C213.432907,84.642685 212.023346,82.953934 207.508224,82.977448 
	C179.516556,83.123245 151.523392,83.091026 123.531441,82.960922 
	C119.528084,82.942314 117.943108,84.087013 117.930405,88.336983 
	C117.717369,159.631165 117.367821,230.924927 117.074951,302.218903 
	C117.050430,308.186157 117.646393,308.671631 123.501183,307.074036 
	C145.992828,300.936615 168.480042,294.779755 190.897751,288.380920 
	C192.592926,287.897064 194.750244,285.586060 194.960098,283.907745 
	C196.258347,273.525543 197.060120,263.081238 198.071976,251.735458 
M54.162117,215.542862 
	C53.672230,216.724564 52.682690,217.944077 52.768814,219.082184 
	C53.761719,232.203659 54.805275,245.324615 56.182800,258.409149 
	C56.342018,259.921478 58.356903,261.994843 59.922176,262.478302 
	C69.140709,265.325623 78.481445,267.777130 87.780075,270.365356 
	C94.962265,272.364471 102.143036,274.368683 109.831390,276.511963 
	C109.831390,221.528320 109.831390,167.181808 109.831390,112.716797 
	C100.702950,112.716797 91.988640,112.716797 82.916031,112.716797 
	C84.294777,155.392166 85.659386,197.629990 87.025352,239.909851 
	C78.453667,239.483704 78.430328,239.486115 77.666527,232.086273 
	C77.110741,226.701630 76.626892,221.309540 76.070198,215.494858 
	C68.576500,215.494858 61.765064,215.494858 54.162117,215.542862 
z"/>
<path fill="#000000" opacity="1.000000" stroke="none" 
	d="
M235.000000,62.531342 
	C157.312439,63.000183 79.624878,63.000366 1.468657,63.000275 
	C1.000000,42.358612 1.000000,21.717220 1.000000,1.037916 
	C78.879311,1.037916 156.758636,1.037916 235.000000,1.037916 
	C235.000000,21.352797 235.000000,41.707741 235.000000,62.531342 
z"/>
<path fill="#000000" opacity="1.000000" stroke="none" 
	d="
M125.468658,329.000000 
	C125.284714,328.360199 125.443802,327.264069 125.872192,327.146118 
	C146.818665,321.379242 167.791183,315.707123 188.753754,309.998627 
	C195.947128,308.039703 203.087753,305.874542 210.321854,304.083801 
	C213.311905,303.343658 213.872086,301.849701 214.108612,298.952087 
	C215.175598,285.880768 216.710693,272.848450 217.924866,259.787964 
	C218.747192,250.942398 219.195526,242.061905 220.028259,233.217484 
	C221.226730,220.488373 222.691238,207.784424 223.910019,195.057083 
	C224.725235,186.544174 225.232544,178.002075 226.017288,169.485886 
	C227.266647,155.927658 228.701981,142.386398 229.924484,128.825867 
	C230.737076,119.812332 231.197708,110.766640 232.043396,101.756683 
	C232.556778,96.287132 233.503616,90.858261 234.627869,85.705551 
	C235.000000,166.899490 235.000000,247.798996 235.000000,329.000000 
	C198.646332,329.000000 162.291824,329.000000 125.468658,329.000000 
z"/>
<path fill="#000000" opacity="1.000000" stroke="none" 
	d="
M0.999999,87.468658 
	C1.666472,88.003983 2.836860,88.966103 2.924263,90.018181 
	C4.366885,107.383163 5.627126,124.763176 7.026706,142.131882 
	C7.936354,153.420593 8.932497,164.703506 10.020696,175.976379 
	C11.264533,188.861526 12.774020,201.721756 13.939710,214.613480 
	C14.813904,224.281448 15.178190,233.995285 16.036928,243.664948 
	C17.211260,256.888367 18.720360,270.081879 19.923618,283.302979 
	C20.505386,289.695312 20.716877,296.121368 21.111168,302.788300 
	C44.296974,309.215363 67.392662,315.559052 90.448463,322.044495 
	C97.250999,323.958008 103.940796,326.272217 110.341125,328.701416 
	C73.711990,329.000000 37.423988,329.000000 1.000000,329.000000 
	C1.000000,248.645828 1.000000,168.291565 0.999999,87.468658 
z"/>
<path fill="#FFD73A" opacity="1.000000" stroke="none" 
	d="
M198.049393,252.196503 
	C197.060120,263.081238 196.258347,273.525543 194.960098,283.907745 
	C194.750244,285.586060 192.592926,287.897064 190.897751,288.380920 
	C168.480042,294.779755 145.992828,300.936615 123.501183,307.074036 
	C117.646393,308.671631 117.050430,308.186157 117.074951,302.218903 
	C117.367821,230.924927 117.717369,159.631165 117.930405,88.336983 
	C117.943108,84.087013 119.528084,82.942314 123.531441,82.960922 
	C151.523392,83.091026 179.516556,83.123245 207.508224,82.977448 
	C212.023346,82.953934 213.432907,84.642685 213.038834,88.888466 
	C211.810104,102.127319 210.760986,115.382751 209.558243,128.624130 
	C208.430725,141.037079 207.173996,153.438263 206.014145,165.848358 
	C204.421402,182.890610 202.868713,199.936615 201.294373,216.980591 
	C200.224228,228.565918 199.146378,240.150528 198.049393,252.196503 
M188.189545,112.794479 
	C166.601944,112.794479 145.014328,112.794479 123.247818,112.794479 
	C123.247818,142.310074 123.247818,171.398041 123.247818,201.112579 
	C132.911102,201.112579 142.314331,201.112579 152.552917,201.112579 
	C151.362045,213.676086 150.319931,225.560120 148.960846,237.407806 
	C148.845612,238.412338 146.729843,239.575851 145.343399,239.981125 
	C138.013565,242.123886 130.619659,244.047348 123.119095,246.081787 
	C123.119095,256.137451 123.119095,265.909363 123.119095,276.252502 
	C125.043114,275.809875 126.621140,275.505585 128.166504,275.082153 
	C142.608612,271.125183 157.008560,267.005829 171.507751,263.271362 
	C175.358871,262.279480 176.826920,260.693115 177.103867,256.618439 
	C177.995560,243.499176 179.414902,230.416138 180.602768,217.316559 
	C181.953568,202.420105 183.274246,187.520889 184.681885,171.797775 
	C173.761627,171.797775 163.231491,171.797775 152.740509,171.797775 
	C152.740509,161.432922 152.740509,151.869003 152.740509,142.452271 
	C153.504898,142.213470 153.821060,142.029694 154.138077,142.028183 
	C160.800690,141.996460 167.464417,142.050079 174.125732,141.946869 
	C178.409439,141.880493 183.910538,143.106934 186.602829,140.940887 
	C188.950104,139.052414 188.363831,133.240952 188.647903,129.133423 
	C189.018646,123.772942 188.969589,118.383446 188.189545,112.794479 
z"/>
<path fill="#FFFEFD" opacity="1.000000" stroke="none" 
	d="
M54.557873,215.518860 
	C61.765064,215.494858 68.576500,215.494858 76.070198,215.494858 
	C76.626892,221.309540 77.110741,226.701630 77.666527,232.086273 
	C78.430328,239.486115 78.453667,239.483704 87.025352,239.909851 
	C85.659386,197.629990 84.294777,155.392166 82.916031,112.716797 
	C91.988640,112.716797 100.702950,112.716797 109.831390,112.716797 
	C109.831390,167.181808 109.831390,221.528320 109.831390,276.511963 
	C102.143036,274.368683 94.962265,272.364471 87.780075,270.365356 
	C78.481445,267.777130 69.140709,265.325623 59.922176,262.478302 
	C58.356903,261.994843 56.342018,259.921478 56.182800,258.409149 
	C54.805275,245.324615 53.761719,232.203659 52.768814,219.082184 
	C52.682690,217.944077 53.672230,216.724564 54.557873,215.518860 
z"/>
<path fill="#FFFFFE" opacity="1.000000" stroke="none" 
	d="
M188.645355,112.900452 
	C188.969589,118.383446 189.018646,123.772942 188.647903,129.133423 
	C188.363831,133.240952 188.950104,139.052414 186.602829,140.940887 
	C183.910538,143.106934 178.409439,141.880493 174.125732,141.946869 
	C167.464417,142.050079 160.800690,141.996460 154.138077,142.028183 
	C153.821060,142.029694 153.504898,142.213470 152.740509,142.452271 
	C152.740509,151.869003 152.740509,161.432922 152.740509,171.797775 
	C163.231491,171.797775 173.761627,171.797775 184.681885,171.797775 
	C183.274246,187.520889 181.953568,202.420105 180.602768,217.316559 
	C179.414902,230.416138 177.995560,243.499176 177.103867,256.618439 
	C176.826920,260.693115 175.358871,262.279480 171.507751,263.271362 
	C157.008560,267.005829 142.608612,271.125183 128.166504,275.082153 
	C126.621140,275.505585 125.043114,275.809875 123.119095,276.252502 
	C123.119095,265.909363 123.119095,256.137451 123.119095,246.081787 
	C130.619659,244.047348 138.013565,242.123886 145.343399,239.981125 
	C146.729843,239.575851 148.845612,238.412338 148.960846,237.407806 
	C150.319931,225.560120 151.362045,213.676086 152.552917,201.112579 
	C142.314331,201.112579 132.911102,201.112579 123.247818,201.112579 
	C123.247818,171.398041 123.247818,142.310074 123.247818,112.794479 
	C145.014328,112.794479 166.601944,112.794479 188.645355,112.900452 
z"/>
</svg>